<mxfile host="Electron" agent="Mozilla/5.0 (X11; Linux x86_64) AppleWebKit/537.36 (KHTML, like Gecko) draw.io/24.7.8 Chrome/128.0.6613.162 Electron/32.1.2 Safari/537.36" version="24.7.8">
  <diagram name="Page-1" id="IKB2mjCPr7UdLYDaK82R">
    <mxGraphModel dx="1195" dy="698" grid="1" gridSize="10" guides="1" tooltips="1" connect="1" arrows="1" fold="1" page="1" pageScale="1" pageWidth="827" pageHeight="1169" math="0" shadow="0">
      <root>
        <mxCell id="0" />
        <mxCell id="1" parent="0" />
        <mxCell id="LAvt9ohFZctMo-ahBMqv-3" value="Neighbours" style="edgeStyle=orthogonalEdgeStyle;rounded=0;orthogonalLoop=1;jettySize=auto;html=1;exitX=0.5;exitY=1;exitDx=0;exitDy=0;entryX=0.5;entryY=0;entryDx=0;entryDy=0;" edge="1" parent="1" source="LAvt9ohFZctMo-ahBMqv-1" target="LAvt9ohFZctMo-ahBMqv-2">
          <mxGeometry relative="1" as="geometry" />
        </mxCell>
        <mxCell id="LAvt9ohFZctMo-ahBMqv-1" value="&lt;font style=&quot;font-size: 14px;&quot;&gt;RTLIL netlist analysis&lt;/font&gt;" style="rounded=0;whiteSpace=wrap;html=1;fillColor=#dae8fc;strokeColor=#6c8ebf;" vertex="1" parent="1">
          <mxGeometry x="180" y="120" width="120" height="60" as="geometry" />
        </mxCell>
        <mxCell id="LAvt9ohFZctMo-ahBMqv-6" value="RTLIL primitives" style="edgeStyle=orthogonalEdgeStyle;rounded=0;orthogonalLoop=1;jettySize=auto;html=1;exitX=0.5;exitY=1;exitDx=0;exitDy=0;entryX=0.5;entryY=0;entryDx=0;entryDy=0;" edge="1" parent="1" source="LAvt9ohFZctMo-ahBMqv-2" target="LAvt9ohFZctMo-ahBMqv-4">
          <mxGeometry relative="1" as="geometry" />
        </mxCell>
        <mxCell id="LAvt9ohFZctMo-ahBMqv-2" value="&lt;font style=&quot;font-size: 14px;&quot;&gt;Backwards BFS&lt;/font&gt;" style="rounded=0;whiteSpace=wrap;html=1;fillColor=#dae8fc;strokeColor=#6c8ebf;" vertex="1" parent="1">
          <mxGeometry x="180" y="230" width="120" height="60" as="geometry" />
        </mxCell>
        <mxCell id="LAvt9ohFZctMo-ahBMqv-9" value="TaMaRa primitives" style="edgeStyle=orthogonalEdgeStyle;rounded=0;orthogonalLoop=1;jettySize=auto;html=1;exitX=0.5;exitY=1;exitDx=0;exitDy=0;entryX=0.5;entryY=0;entryDx=0;entryDy=0;" edge="1" parent="1" source="LAvt9ohFZctMo-ahBMqv-4">
          <mxGeometry relative="1" as="geometry">
            <mxPoint x="240" y="450" as="targetPoint" />
          </mxGeometry>
        </mxCell>
        <mxCell id="LAvt9ohFZctMo-ahBMqv-4" value="&lt;span style=&quot;font-size: 14px;&quot;&gt;Lift RTLIL to TaMaRa primitives&lt;/span&gt;" style="rounded=0;whiteSpace=wrap;html=1;fillColor=#dae8fc;strokeColor=#6c8ebf;" vertex="1" parent="1">
          <mxGeometry x="175" y="340" width="130" height="60" as="geometry" />
        </mxCell>
        <mxCell id="LAvt9ohFZctMo-ahBMqv-16" value="Logic cones" style="edgeStyle=orthogonalEdgeStyle;rounded=0;orthogonalLoop=1;jettySize=auto;html=1;exitX=1;exitY=0.5;exitDx=0;exitDy=0;entryX=0;entryY=0.5;entryDx=0;entryDy=0;" edge="1" parent="1" source="LAvt9ohFZctMo-ahBMqv-11" target="LAvt9ohFZctMo-ahBMqv-12">
          <mxGeometry relative="1" as="geometry" />
        </mxCell>
        <mxCell id="LAvt9ohFZctMo-ahBMqv-11" value="&lt;span style=&quot;font-size: 14px;&quot;&gt;Bundle into logic cone&lt;/span&gt;" style="rounded=0;whiteSpace=wrap;html=1;fillColor=#dae8fc;strokeColor=#6c8ebf;" vertex="1" parent="1">
          <mxGeometry x="170" y="450" width="130" height="60" as="geometry" />
        </mxCell>
        <mxCell id="LAvt9ohFZctMo-ahBMqv-17" value="Logic cone&lt;div&gt;w/ replicated components&lt;/div&gt;" style="edgeStyle=orthogonalEdgeStyle;rounded=0;orthogonalLoop=1;jettySize=auto;html=1;exitX=0.5;exitY=1;exitDx=0;exitDy=0;" edge="1" parent="1" source="LAvt9ohFZctMo-ahBMqv-12" target="LAvt9ohFZctMo-ahBMqv-13">
          <mxGeometry relative="1" as="geometry" />
        </mxCell>
        <mxCell id="LAvt9ohFZctMo-ahBMqv-12" value="&lt;font style=&quot;font-size: 14px;&quot;&gt;Component replication&lt;/font&gt;" style="rounded=0;whiteSpace=wrap;html=1;fillColor=#d5e8d4;strokeColor=#82b366;" vertex="1" parent="1">
          <mxGeometry x="370" y="120" width="120" height="60" as="geometry" />
        </mxCell>
        <mxCell id="LAvt9ohFZctMo-ahBMqv-18" value="Logic cone w/ voter" style="edgeStyle=orthogonalEdgeStyle;rounded=0;orthogonalLoop=1;jettySize=auto;html=1;exitX=0.5;exitY=1;exitDx=0;exitDy=0;entryX=0.5;entryY=0;entryDx=0;entryDy=0;" edge="1" parent="1" source="LAvt9ohFZctMo-ahBMqv-13" target="LAvt9ohFZctMo-ahBMqv-14">
          <mxGeometry relative="1" as="geometry" />
        </mxCell>
        <mxCell id="LAvt9ohFZctMo-ahBMqv-13" value="&lt;font style=&quot;font-size: 14px;&quot;&gt;Voter insertion&lt;/font&gt;" style="rounded=0;whiteSpace=wrap;html=1;fillColor=#ffe6cc;strokeColor=#d79b00;" vertex="1" parent="1">
          <mxGeometry x="370" y="230" width="120" height="60" as="geometry" />
        </mxCell>
        <mxCell id="LAvt9ohFZctMo-ahBMqv-19" value="Wired&amp;nbsp;&lt;div&gt;cone&lt;/div&gt;" style="edgeStyle=orthogonalEdgeStyle;rounded=0;orthogonalLoop=1;jettySize=auto;html=1;exitX=1;exitY=0.5;exitDx=0;exitDy=0;entryX=0;entryY=0.5;entryDx=0;entryDy=0;" edge="1" parent="1" source="LAvt9ohFZctMo-ahBMqv-14" target="LAvt9ohFZctMo-ahBMqv-15">
          <mxGeometry relative="1" as="geometry" />
        </mxCell>
        <mxCell id="LAvt9ohFZctMo-ahBMqv-14" value="&lt;font style=&quot;font-size: 14px;&quot;&gt;Wiring/re-wiring logic&lt;/font&gt;" style="rounded=0;whiteSpace=wrap;html=1;fillColor=#fff2cc;strokeColor=#d6b656;" vertex="1" parent="1">
          <mxGeometry x="370" y="340" width="120" height="60" as="geometry" />
        </mxCell>
        <mxCell id="LAvt9ohFZctMo-ahBMqv-20" value="While successors exist" style="edgeStyle=orthogonalEdgeStyle;rounded=0;orthogonalLoop=1;jettySize=auto;html=1;exitX=1;exitY=0.5;exitDx=0;exitDy=0;entryX=0.5;entryY=0;entryDx=0;entryDy=0;" edge="1" parent="1" source="LAvt9ohFZctMo-ahBMqv-15" target="LAvt9ohFZctMo-ahBMqv-1">
          <mxGeometry relative="1" as="geometry">
            <Array as="points">
              <mxPoint x="690" y="150" />
              <mxPoint x="690" y="100" />
              <mxPoint x="240" y="100" />
            </Array>
          </mxGeometry>
        </mxCell>
        <mxCell id="LAvt9ohFZctMo-ahBMqv-15" value="&lt;font style=&quot;font-size: 14px;&quot;&gt;Build successor logic cones&lt;/font&gt;" style="rounded=0;whiteSpace=wrap;html=1;fillColor=#f8cecc;strokeColor=#b85450;" vertex="1" parent="1">
          <mxGeometry x="550" y="120" width="120" height="60" as="geometry" />
        </mxCell>
        <mxCell id="LAvt9ohFZctMo-ahBMqv-21" value="" style="shape=curlyBracket;whiteSpace=wrap;html=1;rounded=1;labelPosition=left;verticalLabelPosition=middle;align=right;verticalAlign=middle;" vertex="1" parent="1">
          <mxGeometry x="140" y="120" width="20" height="390" as="geometry" />
        </mxCell>
        <mxCell id="LAvt9ohFZctMo-ahBMqv-22" value="tamara::LogicGraph construction" style="text;html=1;align=center;verticalAlign=middle;whiteSpace=wrap;rounded=0;rotation=-90;" vertex="1" parent="1">
          <mxGeometry x="30" y="300" width="190" height="40" as="geometry" />
        </mxCell>
      </root>
    </mxGraphModel>
  </diagram>
</mxfile>
